<svg xmlns="http://www.w3.org/2000/svg" viewBox="0 0 379.58 106.29"><defs><style>.cls-1{fill:#005dca;}</style></defs><g id="Capa_2" data-name="Capa 2"><g id="Capa_1-2" data-name="Capa 1"><polygon class="cls-1" points="26.75 39.98 61.99 61.59 61.99 61.86 55.68 65.07 14.38 39.73 46.52 21.71 46.3 29.01 26.75 39.98"/><polygon class="cls-1" points="73.43 38.96 73.43 49.25 67.16 49.25 67.16 42.34 73.43 38.96"/><polygon class="cls-1" points="92.71 28.21 86.72 31.99 46.49 8.78 6.33 31.96 0 28.6 0 28.37 46.49 1.54 92.71 28.21"/><path class="cls-1" d="M70.25,45.79a6,6,0,1,1-6,6A6,6,0,0,1,70.25,45.79Z"/><polygon class="cls-1" points="92.99 28.37 92.99 82.06 55.73 103.56 55.73 65.1 55.68 65.07 61.99 61.86 61.99 92.71 86.72 78.44 86.72 31.99 92.71 28.21 92.99 28.37"/><polygon class="cls-1" points="37.47 72.99 37.47 103.69 0 82.06 0 28.6 6.33 31.96 6.26 31.99 6.26 78.44 31.2 92.84 31.2 76.41 18.09 67.93 21.47 62.67 37.47 72.99"/><polygon class="cls-1" points="73.43 38.93 73.43 38.96 67.16 42.34 46.3 29.01 46.52 21.71 46.52 21.71 73.43 38.93"/><path class="cls-1" d="M26.93,70.54a6,6,0,1,1,.34-8.47A6,6,0,0,1,26.93,70.54Z"/><path class="cls-1" d="M149.16,62.79a47.88,47.88,0,0,1-12.58,1.44c-12.83,0-25-6.76-25-26.84V26.75C111.6,6.67,123.75,0,136.58,0a48,48,0,0,1,12.58,1.43c1.18.34,1.85.68,1.85,1.86v8.19a1.49,1.49,0,0,1-1.6,1.69h-.25c-3.21-.26-7.85-.68-12.49-.68-5.83,0-10.47,3-10.47,14.26V37.39c0,11.22,4.64,14.26,10.47,14.26,4.64,0,9.28-.42,12.49-.67h.25a1.48,1.48,0,0,1,1.6,1.68v8.19C151,62,150.34,62.45,149.16,62.79Z"/><path class="cls-1" d="M182.16,64.23c-13.93,0-25-7.52-25-27.1v-10c0-19.58,11-27.09,25-27.09s25,7.51,25,27.09v10C207.14,56.71,196.08,64.23,182.16,64.23Zm10.46-37.14c0-10.13-3.37-14.43-10.46-14.43S171.78,17,171.78,27.09v10c0,10.13,3.29,14.44,10.38,14.44s10.46-4.31,10.46-14.44Z"/><path class="cls-1" d="M264.7,63.47H251.79c-.93,0-1.27-.85-1.69-1.69L238.79,40.43l-.93.08c-1.77,0-4.39-.17-6-.17V61.78a1.69,1.69,0,0,1-1.69,1.69h-11a1.69,1.69,0,0,1-1.69-1.69V5.15c0-2.87,1.18-3.63,3.8-4.05A133.66,133.66,0,0,1,238.45,0c14.35,0,25.41,4.81,25.41,19.75v1.1c0,8.94-4.73,14.43-10.89,16.87l12.74,23.8a2.23,2.23,0,0,1,.26.93C266,63,265.63,63.47,264.7,63.47ZM249.51,19.75c0-5.15-4-7.51-11.06-7.51-1.18,0-5.57.17-6.58.25v16.2c.93.09,5.06.17,6,.17,8.86,0,11.65-2.28,11.65-8Z"/><path class="cls-1" d="M299,64.23c-13.42,0-24.31-5.07-24.31-24.31V2.36a1.62,1.62,0,0,1,1.69-1.6h11.06a1.62,1.62,0,0,1,1.68,1.6V39.92c0,8.61,2.28,12.24,9.88,12.24s10-3.63,10-12.24V2.36a1.62,1.62,0,0,1,1.68-1.6h11a1.7,1.7,0,0,1,1.77,1.6V39.92C323.36,59.16,312.39,64.23,299,64.23Z"/><path class="cls-1" d="M352.06,64.23a62.6,62.6,0,0,1-16-1.86c-.84-.25-1.68-.76-1.68-1.69V52.41a1.4,1.4,0,0,1,1.52-1.6h.25c3.46.33,12.74,1,16,1,5.83,0,7.52-1.86,7.52-5.91,0-2.45-1.18-3.8-5.57-6.41l-11.65-6.92c-7.85-4.65-10-10-10-16.12C332.56,7.17,337.79,0,354.17,0a92.63,92.63,0,0,1,17.89,1.86,1.48,1.48,0,0,1,1.26,1.52V11.9a1.28,1.28,0,0,1-1.43,1.43h-.17c-2.36-.16-12.15-.92-17.89-.92-4.81,0-6.58,1.43-6.58,4.47,0,2.36,1.09,3.46,5.65,5.91l10.8,5.82c8.78,4.73,11.4,10.3,11.4,17.13C375.1,54.69,369.19,64.23,352.06,64.23Z"/><path class="cls-1" d="M130.82,105.85a27.25,27.25,0,0,1-5.68.44c-4.21,0-9-2.26-9-10.57V91c0-8.39,4.82-10.58,9-10.58a36.66,36.66,0,0,1,5.75.55c.31,0,.55.14.55.45v1.74c0,.21-.07.38-.41.38h-.1c-1.24-.1-3.77-.31-5.75-.31-3.36,0-6,2-6,7.77v4.76c0,5.75,2.6,7.77,6,7.77,1.95,0,4.41-.18,5.64-.28H131c.38,0,.55.17.55.55v1.4C131.51,105.57,131.2,105.78,130.82,105.85Z"/><path class="cls-1" d="M143.08,106.29c-5.38,0-9.28-3.15-9.28-10.74V91.13c0-7.6,3.9-10.75,9.28-10.75s9.24,3.15,9.24,10.75v4.42C152.32,103.14,148.45,106.29,143.08,106.29Zm6.09-15.16c0-5.75-2.33-7.94-6.09-7.94S137,85.38,137,91.13v4.42c0,5.74,2.36,7.94,6.13,7.94s6.09-2.2,6.09-7.94Z"/><path class="cls-1" d="M174,106.05h-2.12a1.12,1.12,0,0,1-1.1-.55L160.19,85.42c0-.07-.07-.11-.11-.11s0,0,0,.11v20a.64.64,0,0,1-.62.65h-1.78c-.34,0-.61-.07-.61-.41V81.58a1,1,0,0,1,1-1h1.88c1,0,1.13.17,1.41.69l10.5,20,.07.11s0-.07,0-.11v-20a.64.64,0,0,1,.61-.65h1.81a.62.62,0,0,1,.62.65v23.79A1,1,0,0,1,174,106.05Z"/><path class="cls-1" d="M194.82,83.29h-6.68v22.08a.64.64,0,0,1-.61.68h-1.88a.64.64,0,0,1-.62-.68V83.29h-6.67c-.38,0-.69-.17-.69-.54V81.24a.66.66,0,0,1,.69-.62h16.46a.6.6,0,0,1,.65.62v1.51C195.47,83.09,195.2,83.29,194.82,83.29Z"/><path class="cls-1" d="M213.68,106.05h-2a.63.63,0,0,1-.59-.51l-2.22-7.87H200l-2.19,7.87a.7.7,0,0,1-.62.51h-2a.55.55,0,0,1-.58-.55.61.61,0,0,1,0-.23L200.94,83a3.38,3.38,0,0,1,3.49-2.6A3.32,3.32,0,0,1,207.89,83l6.33,22.32a.47.47,0,0,1,0,.23A.53.53,0,0,1,213.68,106.05ZM205.09,83.7c-.11-.37-.31-.61-.66-.61s-.58.24-.68.61L200.64,95h7.56Z"/><path class="cls-1" d="M231.27,105.85a27.43,27.43,0,0,1-5.69.44c-4.21,0-9-2.26-9-10.57V91c0-8.39,4.82-10.58,9-10.58a36.66,36.66,0,0,1,5.75.55c.31,0,.55.14.55.45v1.74c0,.21-.07.38-.41.38h-.1c-1.23-.1-3.77-.31-5.75-.31-3.36,0-6,2-6,7.77v4.76c0,5.75,2.6,7.77,6,7.77,1.95,0,4.41-.18,5.65-.28h.13c.38,0,.55.17.55.55v1.4C232,105.57,231.64,105.78,231.27,105.85Z"/><path class="cls-1" d="M251.49,83.29h-6.67v22.08a.65.65,0,0,1-.62.68h-1.88a.65.65,0,0,1-.62-.68V83.29H235c-.38,0-.69-.17-.69-.54V81.24a.66.66,0,0,1,.69-.62h16.46a.6.6,0,0,1,.65.62v1.51C252.14,83.09,251.87,83.29,251.49,83.29Z"/><path class="cls-1" d="M278.56,105.85a27.32,27.32,0,0,1-5.68.44c-4.21,0-9-2.26-9-10.57V91c0-8.39,4.83-10.58,9-10.58a36.91,36.91,0,0,1,5.75.55c.3,0,.55.14.55.45v1.74c0,.21-.07.38-.42.38h-.1c-1.23-.1-3.76-.31-5.75-.31-3.35,0-6,2-6,7.77v4.76c0,5.75,2.6,7.77,6,7.77,1.95,0,4.42-.18,5.65-.28h.14c.37,0,.54.17.54.55v1.4C279.24,105.57,278.93,105.78,278.56,105.85Z"/><path class="cls-1" d="M297.07,106.12c-1.3.14-4.65.17-6.67.17-4.79,0-7.29-1.81-7.29-6.36V86.75c0-4.55,2.5-6.37,7.29-6.37,2,0,5.24.07,6.67.21a.48.48,0,0,1,.35.48v1.71a.37.37,0,0,1-.38.41h-6.61c-3.62,0-4.21,1-4.21,3.56v4.76h10.51a.69.69,0,0,1,.69.68v1.3a.69.69,0,0,1-.69.69H286.22v5.75c0,2.6.59,3.56,4.21,3.56H297a.37.37,0,0,1,.38.41v1.74A.48.48,0,0,1,297.07,106.12Z"/><path class="cls-1" d="M318.91,106.05h-2.13a1.12,1.12,0,0,1-1.09-.55L305.11,85.42c0-.07-.06-.11-.1-.11s0,0,0,.11v20a.64.64,0,0,1-.62.65h-1.78c-.34,0-.61-.07-.61-.41V81.58a1,1,0,0,1,1-1h1.88c1,0,1.13.17,1.4.69l10.51,20,.07.11s0-.07,0-.11v-20a.65.65,0,0,1,.62-.65h1.81a.62.62,0,0,1,.62.65v23.79A1,1,0,0,1,318.91,106.05Z"/><path class="cls-1" d="M339.75,83.29h-6.68v22.08a.65.65,0,0,1-.61.68h-1.88a.64.64,0,0,1-.62-.68V83.29h-6.67c-.38,0-.69-.17-.69-.54V81.24a.66.66,0,0,1,.69-.62h16.46a.61.61,0,0,1,.65.62v1.51C340.4,83.09,340.12,83.29,339.75,83.29Z"/><path class="cls-1" d="M357.3,106.12c-1.3.14-4.65.17-6.67.17-4.79,0-7.29-1.81-7.29-6.36V86.75c0-4.55,2.5-6.37,7.29-6.37,2,0,5.24.07,6.67.21a.47.47,0,0,1,.34.48v1.71a.36.36,0,0,1-.37.41h-6.61c-3.62,0-4.21,1-4.21,3.56v4.76H357a.68.68,0,0,1,.68.68v1.3a.68.68,0,0,1-.68.69H346.45v5.75c0,2.6.59,3.56,4.21,3.56h6.61a.36.36,0,0,1,.37.41v1.74A.47.47,0,0,1,357.3,106.12Z"/><path class="cls-1" d="M379.14,106.05H377c-.41,0-.62,0-.89-.44l-6.13-10.2H369c-1.13,0-2,0-3.76-.1v10.06a.65.65,0,0,1-.62.68h-1.85a.64.64,0,0,1-.61-.68v-24c0-.48.2-.68.82-.75,1.47-.17,4-.28,6-.28,5.41,0,9.58,1.82,9.58,7.36V88a6.74,6.74,0,0,1-5.37,6.92l6.23,10.4a.52.52,0,0,1,.1.31A.43.43,0,0,1,379.14,106.05Zm-3.6-18.31c0-3.42-2.22-4.55-6.5-4.55-1.06,0-2.94,0-3.76.1v9.38c1.5,0,3,.07,3.76.07,4.21,0,6.5-1.06,6.5-4.76Z"/></g></g></svg>