<svg xmlns="http://www.w3.org/2000/svg" viewBox="0 0 274 107" width="274" height="107">
	<style>
		tspan { white-space:pre }
		.shp0 { fill: #005dca } 
	</style>
	<g id="Capa_2">
		<g id="Capa_1-2">
			<path id="Layer" class="shp0" d="M-79.25 39.98L-44.01 61.59L-44.01 61.86L-50.32 65.07L-91.62 39.73L-59.48 21.71L-59.7 29.01L-79.25 39.98L-79.25 39.98Z" />
			<path id="Layer" class="shp0" d="M-32.57 38.96L-32.57 49.25L-38.84 49.25L-38.84 42.34L-32.57 38.96L-32.57 38.96Z" />
			<path id="Layer" class="shp0" d="M-13.29 28.21L-19.28 31.99L-59.51 8.78L-99.67 31.96L-106 28.6L-106 28.37L-59.51 1.54L-13.29 28.21L-13.29 28.21Z" />
			<path id="Layer" class="shp0" d="M-35.75 45.79C-33.32 45.79 -31.14 47.25 -30.21 49.49C-29.28 51.74 -29.79 54.32 -31.51 56.03C-33.22 57.75 -35.8 58.26 -38.05 57.33C-40.29 56.4 -41.75 54.22 -41.75 51.79C-41.75 51 -41.59 50.22 -41.29 49.49C-40.99 48.77 -40.55 48.1 -39.99 47.55C-39.44 46.99 -38.77 46.55 -38.05 46.25C-37.32 45.95 -36.54 45.79 -35.75 45.79Z" />
			<path id="Layer" class="shp0" d="M-13.01 28.37L-13.01 82.06L-50.27 103.56L-50.27 65.1L-50.32 65.07L-44.01 61.86L-44.01 92.71L-19.28 78.44L-19.28 31.99L-13.29 28.21L-13.01 28.37L-13.01 28.37Z" />
			<path id="Layer" class="shp0" d="M-68.53 72.99L-68.53 103.69L-106 82.06L-106 28.6L-99.67 31.96L-99.74 31.99L-99.74 78.44L-74.8 92.84L-74.8 76.41L-87.91 67.93L-84.53 62.67L-68.53 72.99L-68.53 72.99Z" />
			<path id="Layer" class="shp0" d="M-32.57 38.93L-32.57 38.96L-38.84 42.34L-59.7 29.01L-59.48 21.71L-59.48 21.71L-32.57 38.93L-32.57 38.93Z" />
			<path id="Layer" class="shp0" d="M-79.07 70.54C-80.85 72.19 -83.45 72.6 -85.66 71.58C-87.86 70.57 -89.24 68.32 -89.14 65.89C-89.04 63.47 -87.49 61.34 -85.21 60.5C-82.93 59.67 -80.37 60.28 -78.73 62.07C-78.2 62.65 -77.78 63.33 -77.51 64.07C-77.24 64.8 -77.12 65.59 -77.15 66.38C-77.18 67.16 -77.37 67.93 -77.7 68.65C-78.03 69.36 -78.49 70.01 -79.07 70.54L-79.07 70.54Z" />
			<path id="Layer" class="shp0" d="M43.16 62.79C42.13 63.05 41.1 63.27 40.06 63.46C39.02 63.65 37.97 63.81 36.92 63.93C35.87 64.05 34.81 64.13 33.75 64.18C32.7 64.23 31.64 64.25 30.58 64.23C17.75 64.23 5.58 57.47 5.58 37.39L5.58 26.75C5.6 6.67 17.75 0 30.58 0C31.64 -0.02 32.7 -0.01 33.75 0.04C34.81 0.09 35.87 0.18 36.92 0.3C37.97 0.42 39.02 0.57 40.06 0.76C41.1 0.95 42.13 1.17 43.16 1.43C44.34 1.77 45.01 2.11 45.01 3.29L45.01 11.48C45.04 11.7 45.02 11.93 44.95 12.14C44.89 12.35 44.77 12.55 44.62 12.71C44.46 12.87 44.27 13 44.07 13.08C43.86 13.16 43.63 13.19 43.41 13.17L43.16 13.17C39.95 12.91 35.31 12.49 30.67 12.49C24.84 12.49 20.2 15.49 20.2 26.75L20.2 37.39C20.2 48.61 24.84 51.65 30.67 51.65C35.31 51.65 39.95 51.23 43.16 50.98L43.41 50.98C43.63 50.96 43.86 50.99 44.06 51.07C44.27 51.15 44.46 51.27 44.62 51.43C44.77 51.59 44.89 51.79 44.95 52C45.02 52.21 45.04 52.44 45.01 52.66L45.01 60.85C45 62 44.34 62.45 43.16 62.79Z" />
			<path id="Layer" fill-rule="evenodd" class="shp0" d="M76.16 64.23C62.23 64.23 51.16 56.71 51.16 37.13L51.16 27.13C51.16 7.55 62.16 0.04 76.16 0.04C90.16 0.04 101.16 7.55 101.16 27.13L101.16 37.13C101.14 56.71 90.08 64.23 76.16 64.23ZM86.62 27.09C86.62 16.96 83.25 12.66 76.16 12.66C69.07 12.66 65.78 17 65.78 27.09L65.78 37.09C65.78 47.22 69.07 51.53 76.16 51.53C83.25 51.53 86.62 47.22 86.62 37.09L86.62 27.09Z" />
			<path id="Layer" fill-rule="evenodd" class="shp0" d="M158.7 63.47L145.79 63.47C144.86 63.47 144.52 62.62 144.1 61.78L132.79 40.43L131.86 40.51C130.09 40.51 127.47 40.34 125.86 40.34L125.86 61.78C125.86 62 125.82 62.22 125.73 62.43C125.65 62.63 125.52 62.82 125.37 62.98C125.21 63.13 125.02 63.26 124.82 63.34C124.61 63.43 124.39 63.47 124.17 63.47L113.17 63.47C112.95 63.47 112.73 63.43 112.52 63.34C112.32 63.26 112.13 63.13 111.97 62.98C111.82 62.82 111.69 62.63 111.61 62.43C111.52 62.22 111.48 62 111.48 61.78L111.48 5.15C111.48 2.28 112.66 1.52 115.28 1.1C116.7 0.92 118.13 0.76 119.56 0.62C120.99 0.48 122.42 0.37 123.85 0.27C125.28 0.18 126.71 0.11 128.15 0.07C129.58 0.02 131.02 0 132.45 0C146.8 0 157.86 4.81 157.86 19.75L157.86 20.85C157.86 29.79 153.13 35.28 146.97 37.72L159.71 61.52C159.75 61.59 159.78 61.67 159.81 61.74C159.84 61.82 159.87 61.89 159.89 61.97C159.91 62.05 159.93 62.13 159.94 62.21C159.96 62.29 159.97 62.37 159.97 62.45C160 63 159.63 63.47 158.7 63.47ZM143.51 19.75C143.51 14.6 139.51 12.24 132.45 12.24C131.27 12.24 126.88 12.41 125.87 12.49L125.87 28.69C126.8 28.78 130.93 28.86 131.87 28.86C140.73 28.86 143.52 26.58 143.52 20.86L143.51 19.75Z" />
			<path id="Layer" class="shp0" d="M193 64.23C179.58 64.23 168.69 59.16 168.69 39.92L168.69 2.36C168.69 2.14 168.74 1.93 168.83 1.73C168.91 1.53 169.04 1.35 169.2 1.2C169.35 1.05 169.54 0.94 169.74 0.86C169.95 0.78 170.16 0.75 170.38 0.76L181.44 0.76C181.66 0.75 181.87 0.79 182.07 0.86C182.28 0.94 182.46 1.06 182.62 1.21C182.77 1.35 182.9 1.53 182.99 1.73C183.07 1.93 183.12 2.14 183.12 2.36L183.12 39.92C183.12 48.53 185.4 52.16 193 52.16C200.6 52.16 203 48.53 203 39.92L203 2.36C203 2.14 203.05 1.93 203.13 1.73C203.22 1.53 203.35 1.35 203.5 1.21C203.66 1.06 203.84 0.94 204.05 0.86C204.25 0.79 204.46 0.75 204.68 0.76L215.68 0.76C215.9 0.75 216.12 0.78 216.33 0.86C216.54 0.93 216.73 1.05 216.89 1.2C217.06 1.35 217.19 1.52 217.29 1.72C217.38 1.92 217.44 2.14 217.45 2.36L217.45 39.92C217.36 59.16 206.39 64.23 193 64.23Z" />
			<path id="Layer" class="shp0" d="M246.06 64.23C244.71 64.25 243.37 64.22 242.02 64.15C240.68 64.08 239.34 63.97 238 63.82C236.66 63.66 235.33 63.46 234.01 63.22C232.68 62.98 231.37 62.7 230.06 62.37C229.22 62.12 228.38 61.61 228.38 60.68L228.38 52.41C228.35 52.2 228.37 51.98 228.43 51.78C228.49 51.58 228.6 51.39 228.75 51.24C228.9 51.08 229.08 50.97 229.28 50.89C229.47 50.82 229.69 50.79 229.9 50.81L230.15 50.81C233.61 51.14 242.89 51.81 246.15 51.81C251.98 51.81 253.67 49.95 253.67 45.9C253.67 43.45 252.49 42.1 248.1 39.49L236.45 32.57C228.6 27.92 226.45 22.57 226.45 16.45C226.56 7.17 231.79 0 248.17 0C249.67 0.01 251.17 0.06 252.67 0.14C254.17 0.22 255.67 0.34 257.16 0.49C258.65 0.65 260.14 0.84 261.63 1.07C263.11 1.3 264.59 1.56 266.06 1.86C266.24 1.89 266.41 1.95 266.57 2.03C266.73 2.12 266.87 2.24 266.98 2.38C267.1 2.52 267.18 2.68 267.24 2.85C267.3 3.02 267.33 3.2 267.32 3.38L267.32 11.9C267.34 12.09 267.32 12.29 267.26 12.47C267.2 12.66 267.09 12.83 266.96 12.97C266.82 13.1 266.65 13.21 266.46 13.27C266.28 13.33 266.08 13.35 265.89 13.33L265.72 13.33C263.36 13.17 253.57 12.41 247.83 12.41C243.02 12.41 241.25 13.84 241.25 16.88C241.25 19.24 242.34 20.34 246.9 22.79L257.7 28.61C266.48 33.34 269.1 38.91 269.1 45.74C269.1 54.69 263.19 64.23 246.06 64.23Z" />
			<path id="Layer" class="shp0" d="M24.82 105.85C24.35 105.94 23.88 106.01 23.41 106.07C22.94 106.13 22.47 106.18 21.99 106.22C21.52 106.26 21.04 106.28 20.57 106.29C20.09 106.3 19.62 106.3 19.14 106.29C14.93 106.29 10.14 104.03 10.14 95.72L10.14 91C10.14 82.61 14.96 80.42 19.14 80.42C19.62 80.43 20.1 80.45 20.58 80.47C21.07 80.5 21.55 80.54 22.03 80.58C22.51 80.63 22.98 80.68 23.46 80.75C23.94 80.81 24.42 80.89 24.89 80.97C25.2 80.97 25.44 81.11 25.44 81.42L25.44 83.16C25.44 83.37 25.37 83.54 25.03 83.54L24.93 83.54C23.69 83.44 21.16 83.23 19.18 83.23C15.82 83.23 13.18 85.23 13.18 91L13.18 95.76C13.18 101.51 15.78 103.53 19.18 103.53C21.13 103.53 23.59 103.35 24.82 103.25L25 103.25C25.38 103.25 25.55 103.42 25.55 103.8L25.55 105.2C25.51 105.57 25.2 105.78 24.82 105.85Z" />
			<path id="Layer" fill-rule="evenodd" class="shp0" d="M37.08 106.29C31.7 106.29 27.8 103.14 27.8 95.55L27.8 91.13C27.8 83.53 31.7 80.38 37.08 80.38C42.46 80.38 46.32 83.53 46.32 91.13L46.32 95.55C46.32 103.14 42.45 106.29 37.08 106.29ZM43.17 91.13C43.17 85.38 40.84 83.19 37.08 83.19C33.32 83.19 31 85.38 31 91.13L31 95.55C31 101.29 33.36 103.49 37.13 103.49C40.9 103.49 43.22 101.29 43.22 95.55L43.17 91.13Z" />
			<path id="Layer" class="shp0" d="M68 106.05L65.88 106.05C65.77 106.06 65.66 106.06 65.56 106.04C65.45 106.02 65.34 105.99 65.25 105.94C65.15 105.89 65.06 105.83 64.98 105.75C64.9 105.68 64.83 105.59 64.78 105.5L54.19 85.42C54.19 85.35 54.12 85.31 54.08 85.31C54.04 85.31 54.08 85.31 54.08 85.42L54.08 105.42C54.08 105.5 54.07 105.59 54.04 105.66C54.01 105.74 53.96 105.81 53.9 105.87C53.85 105.93 53.78 105.98 53.7 106.01C53.63 106.05 53.54 106.07 53.46 106.07L51.68 106.07C51.34 106.07 51.07 106 51.07 105.66L51.07 81.58C51.07 81.45 51.1 81.32 51.15 81.2C51.2 81.08 51.27 80.97 51.36 80.87C51.46 80.78 51.57 80.71 51.69 80.66C51.81 80.61 51.94 80.58 52.07 80.58L53.95 80.58C54.95 80.58 55.08 80.75 55.36 81.27L65.86 101.27L65.93 101.38C65.93 101.38 65.93 101.31 65.93 101.27L65.93 81.27C65.93 81.19 65.94 81.11 65.97 81.03C66 80.95 66.05 80.88 66.1 80.82C66.16 80.76 66.23 80.71 66.3 80.68C66.38 80.64 66.46 80.62 66.54 80.62L68.35 80.62C68.43 80.62 68.52 80.64 68.59 80.67C68.67 80.7 68.74 80.75 68.8 80.81C68.86 80.87 68.9 80.94 68.93 81.02C68.96 81.1 68.97 81.19 68.97 81.27L68.97 105.06C68.97 105.19 68.94 105.31 68.89 105.43C68.85 105.55 68.77 105.66 68.68 105.75C68.59 105.84 68.49 105.92 68.37 105.97C68.25 106.02 68.13 106.05 68 106.05Z" />
			<path id="Layer" class="shp0" d="M88.82 83.29L82.14 83.29L82.14 105.37C82.15 105.45 82.13 105.54 82.11 105.62C82.08 105.7 82.03 105.77 81.98 105.84C81.92 105.9 81.85 105.95 81.78 105.99C81.7 106.03 81.61 106.05 81.53 106.05L79.65 106.05C79.56 106.05 79.48 106.03 79.4 105.99C79.32 105.96 79.25 105.9 79.2 105.84C79.14 105.78 79.09 105.7 79.06 105.62C79.04 105.54 79.02 105.46 79.03 105.37L79.03 83.29L72.36 83.29C71.98 83.29 71.67 83.12 71.67 82.75L71.67 81.24C71.68 81.15 71.7 81.07 71.73 80.99C71.77 80.92 71.82 80.85 71.89 80.79C71.95 80.73 72.03 80.69 72.11 80.66C72.19 80.63 72.27 80.62 72.36 80.62L88.82 80.62C88.9 80.61 88.99 80.62 89.07 80.65C89.15 80.68 89.22 80.73 89.28 80.78C89.35 80.84 89.39 80.91 89.43 80.99C89.46 81.07 89.47 81.16 89.47 81.24L89.47 82.75C89.47 83.09 89.2 83.29 88.82 83.29Z" />
			<path id="Layer" fill-rule="evenodd" class="shp0" d="M105.68 106.05C105.61 106.05 105.54 106.03 105.48 106.01C105.41 105.98 105.35 105.94 105.3 105.9C105.24 105.85 105.2 105.8 105.16 105.74C105.13 105.68 105.1 105.61 105.09 105.54L102.87 97.67L94 97.67L91.81 105.54C91.79 105.61 91.76 105.67 91.72 105.73C91.68 105.79 91.64 105.85 91.58 105.89C91.53 105.94 91.46 105.97 91.4 106C91.33 106.03 91.26 106.04 91.19 106.05L89.19 106.05C89.12 106.05 89.04 106.04 88.97 106.02C88.9 105.99 88.84 105.95 88.78 105.9C88.73 105.85 88.68 105.79 88.65 105.72C88.63 105.65 88.61 105.57 88.61 105.5C88.61 105.48 88.6 105.46 88.6 105.44C88.6 105.42 88.6 105.4 88.6 105.38C88.6 105.37 88.6 105.35 88.6 105.33C88.6 105.31 88.61 105.29 88.61 105.27L94.94 83C95.03 82.62 95.19 82.25 95.4 81.92C95.62 81.59 95.89 81.3 96.21 81.06C96.53 80.83 96.88 80.65 97.26 80.54C97.64 80.42 98.04 80.38 98.43 80.4C98.82 80.37 99.22 80.42 99.6 80.53C99.97 80.64 100.33 80.82 100.64 81.06C100.96 81.3 101.23 81.59 101.44 81.92C101.65 82.25 101.81 82.62 101.89 83L108.22 105.32C108.22 105.34 108.23 105.36 108.23 105.38C108.23 105.4 108.23 105.42 108.23 105.44C108.23 105.45 108.23 105.47 108.23 105.49C108.23 105.51 108.22 105.53 108.22 105.55C108.22 105.62 108.2 105.68 108.17 105.75C108.14 105.81 108.1 105.86 108.05 105.91C108 105.96 107.94 105.99 107.88 106.02C107.82 106.04 107.75 106.05 107.68 106.05L105.68 106.05ZM99.09 83.7C98.98 83.33 98.78 83.09 98.43 83.09C98.08 83.09 97.85 83.33 97.75 83.7L94.64 95L102.2 95L99.09 83.7Z" />
			<path id="Layer" class="shp0" d="M125.27 105.85C124.8 105.94 124.33 106.01 123.86 106.07C123.39 106.13 122.91 106.18 122.44 106.22C121.96 106.26 121.49 106.28 121.01 106.29C120.53 106.3 120.06 106.3 119.58 106.29C115.37 106.29 110.58 104.03 110.58 95.72L110.58 91C110.58 82.61 115.4 80.42 119.58 80.42C120.06 80.43 120.54 80.45 121.02 80.47C121.51 80.5 121.99 80.54 122.47 80.58C122.95 80.63 123.42 80.68 123.9 80.75C124.38 80.81 124.86 80.89 125.33 80.97C125.64 80.97 125.88 81.11 125.88 81.42L125.88 83.16C125.88 83.37 125.81 83.54 125.47 83.54L125.37 83.54C124.14 83.44 121.6 83.23 119.62 83.23C116.26 83.23 113.62 85.23 113.62 91L113.62 95.76C113.62 101.51 116.22 103.53 119.62 103.53C121.57 103.53 124.03 103.35 125.27 103.25L125.4 103.25C125.78 103.25 125.95 103.42 125.95 103.8L125.95 105.2C126 105.57 125.64 105.78 125.27 105.85Z" />
			<path id="Layer" class="shp0" d="M145.49 83.29L138.82 83.29L138.82 105.37C138.82 105.46 138.81 105.54 138.78 105.62C138.75 105.7 138.71 105.78 138.65 105.84C138.59 105.9 138.52 105.95 138.45 105.99C138.37 106.03 138.29 106.05 138.2 106.05L136.32 106.05C136.23 106.05 136.15 106.03 136.07 105.99C136 105.95 135.93 105.9 135.87 105.84C135.81 105.78 135.77 105.7 135.74 105.62C135.71 105.54 135.7 105.46 135.7 105.37L135.7 83.29L129 83.29C128.62 83.29 128.31 83.12 128.31 82.75L128.31 81.24C128.32 81.15 128.34 81.07 128.37 80.99C128.41 80.92 128.46 80.85 128.53 80.79C128.59 80.73 128.67 80.69 128.75 80.66C128.83 80.63 128.91 80.62 129 80.62L145.46 80.62C145.54 80.61 145.63 80.62 145.71 80.65C145.79 80.68 145.86 80.73 145.92 80.78C145.99 80.84 146.03 80.91 146.07 80.99C146.1 81.07 146.11 81.16 146.11 81.24L146.11 82.75C146.14 83.09 145.87 83.29 145.49 83.29Z" />
			<path id="Layer" class="shp0" d="M172.56 105.85C172.09 105.94 171.62 106.01 171.15 106.07C170.68 106.13 170.21 106.18 169.73 106.22C169.26 106.26 168.78 106.28 168.31 106.29C167.83 106.3 167.36 106.3 166.88 106.29C162.67 106.29 157.88 104.03 157.88 95.72L157.88 91C157.88 82.61 162.71 80.42 166.88 80.42C167.36 80.43 167.84 80.45 168.32 80.47C168.81 80.5 169.29 80.54 169.77 80.58C170.25 80.63 170.72 80.68 171.2 80.75C171.68 80.81 172.16 80.89 172.63 80.97C172.93 80.97 173.18 81.11 173.18 81.42L173.18 83.16C173.18 83.37 173.11 83.54 172.76 83.54L172.66 83.54C171.43 83.44 168.9 83.23 166.91 83.23C163.56 83.23 160.91 85.23 160.91 91L160.91 95.76C160.91 101.51 163.51 103.53 166.91 103.53C168.86 103.53 171.33 103.35 172.56 103.25L172.7 103.25C173.07 103.25 173.24 103.42 173.24 103.8L173.24 105.2C173.24 105.57 172.93 105.78 172.56 105.85Z" />
			<path id="Layer" class="shp0" d="M191.07 106.12C189.77 106.26 186.42 106.29 184.4 106.29C179.61 106.29 177.11 104.48 177.11 99.93L177.11 86.75C177.11 82.2 179.61 80.38 184.4 80.38C186.4 80.38 189.64 80.45 191.07 80.59C191.12 80.6 191.17 80.63 191.21 80.66C191.26 80.69 191.3 80.73 191.33 80.77C191.36 80.81 191.38 80.86 191.4 80.91C191.42 80.96 191.42 81.02 191.42 81.07L191.42 82.78C191.43 82.83 191.42 82.89 191.4 82.94C191.39 82.99 191.36 83.03 191.32 83.07C191.29 83.11 191.24 83.14 191.19 83.16C191.15 83.18 191.09 83.19 191.04 83.19L184.43 83.19C180.81 83.19 180.22 84.19 180.22 86.75L180.22 91.51L190.73 91.51C190.82 91.51 190.91 91.53 190.99 91.56C191.07 91.6 191.15 91.65 191.21 91.71C191.28 91.77 191.33 91.85 191.36 91.93C191.4 92.01 191.42 92.1 191.42 92.19L191.42 93.49C191.42 93.58 191.4 93.67 191.37 93.75C191.33 93.84 191.28 93.91 191.22 93.98C191.15 94.04 191.08 94.09 190.99 94.13C190.91 94.16 190.82 94.18 190.73 94.18L180.22 94.18L180.22 99.93C180.22 102.53 180.81 103.49 184.43 103.49L191 103.49C191.05 103.49 191.11 103.5 191.15 103.52C191.2 103.54 191.25 103.57 191.28 103.61C191.32 103.65 191.35 103.69 191.36 103.74C191.38 103.79 191.39 103.85 191.38 103.9L191.38 105.64C191.38 105.69 191.38 105.74 191.37 105.79C191.35 105.84 191.33 105.89 191.3 105.93C191.28 105.97 191.24 106.01 191.2 106.04C191.16 106.08 191.12 106.1 191.07 106.12Z" />
			<path id="Layer" class="shp0" d="M212.91 106.05L210.78 106.05C210.67 106.06 210.56 106.06 210.46 106.04C210.35 106.02 210.25 105.99 210.15 105.94C210.06 105.89 209.97 105.83 209.89 105.75C209.81 105.68 209.74 105.59 209.69 105.5L199.11 85.42C199.11 85.35 199.05 85.31 199.01 85.31C198.97 85.31 199.01 85.31 199.01 85.42L199.01 105.42C199.01 105.5 199 105.59 198.97 105.66C198.94 105.74 198.89 105.81 198.83 105.87C198.78 105.93 198.71 105.98 198.63 106.01C198.56 106.05 198.47 106.07 198.39 106.07L196.61 106.07C196.27 106.07 196 106 196 105.66L196 81.58C196 81.45 196.03 81.32 196.08 81.2C196.13 81.08 196.2 80.97 196.29 80.87C196.39 80.78 196.5 80.71 196.62 80.66C196.74 80.61 196.87 80.58 197 80.58L198.88 80.58C199.88 80.58 200.01 80.75 200.28 81.27L210.79 101.27L210.86 101.38C210.86 101.38 210.86 101.31 210.86 101.27L210.86 81.27C210.86 81.19 210.88 81.1 210.91 81.03C210.94 80.95 210.98 80.88 211.04 80.82C211.1 80.76 211.17 80.71 211.24 80.68C211.32 80.64 211.4 80.62 211.48 80.62L213.29 80.62C213.37 80.62 213.46 80.64 213.53 80.67C213.61 80.7 213.68 80.75 213.74 80.81C213.8 80.87 213.84 80.94 213.87 81.02C213.9 81.1 213.91 81.19 213.91 81.27L213.91 105.06C213.91 105.19 213.88 105.32 213.83 105.44C213.78 105.56 213.71 105.67 213.61 105.76C213.52 105.85 213.41 105.93 213.29 105.97C213.17 106.02 213.04 106.05 212.91 106.05L212.91 106.05Z" />
			<path id="Layer" class="shp0" d="M233.75 83.29L227.07 83.29L227.07 105.37C227.07 105.45 227.06 105.54 227.03 105.62C227 105.7 226.96 105.77 226.9 105.84C226.85 105.9 226.78 105.95 226.7 105.99C226.63 106.02 226.54 106.04 226.46 106.05L224.58 106.05C224.49 106.05 224.41 106.03 224.33 105.99C224.25 105.96 224.18 105.9 224.13 105.84C224.07 105.78 224.02 105.7 223.99 105.62C223.97 105.54 223.95 105.46 223.96 105.37L223.96 83.29L217.29 83.29C216.91 83.29 216.6 83.12 216.6 82.75L216.6 81.24C216.61 81.15 216.63 81.07 216.66 80.99C216.7 80.92 216.75 80.85 216.82 80.79C216.88 80.73 216.96 80.69 217.04 80.66C217.12 80.63 217.2 80.62 217.29 80.62L233.75 80.62C233.83 80.61 233.92 80.63 234 80.66C234.08 80.68 234.15 80.73 234.21 80.79C234.27 80.85 234.32 80.92 234.35 80.99C234.39 81.07 234.4 81.16 234.4 81.24L234.4 82.75C234.4 83.09 234.12 83.29 233.75 83.29Z" />
			<path id="Layer" class="shp0" d="M251.3 106.12C250 106.26 246.65 106.29 244.63 106.29C239.84 106.29 237.34 104.48 237.34 99.93L237.34 86.75C237.34 82.2 239.84 80.38 244.63 80.38C246.63 80.38 249.87 80.45 251.3 80.59C251.35 80.6 251.4 80.63 251.44 80.66C251.49 80.69 251.52 80.73 251.55 80.77C251.59 80.81 251.61 80.86 251.62 80.91C251.64 80.96 251.64 81.02 251.64 81.07L251.64 82.78C251.65 82.83 251.64 82.89 251.63 82.94C251.61 82.99 251.59 83.03 251.55 83.07C251.52 83.11 251.47 83.14 251.42 83.16C251.38 83.18 251.32 83.19 251.27 83.19L244.66 83.19C241.04 83.19 240.45 84.19 240.45 86.75L240.45 91.51L251 91.51C251.09 91.51 251.18 91.53 251.26 91.56C251.34 91.6 251.42 91.65 251.48 91.71C251.54 91.77 251.59 91.85 251.63 91.93C251.66 92.01 251.68 92.1 251.68 92.19L251.68 93.49C251.68 93.58 251.66 93.67 251.63 93.75C251.6 93.84 251.55 93.91 251.48 93.98C251.42 94.04 251.35 94.09 251.26 94.13C251.18 94.16 251.09 94.18 251 94.18L240.45 94.18L240.45 99.93C240.45 102.53 241.04 103.49 244.66 103.49L251.27 103.49C251.32 103.49 251.38 103.5 251.42 103.52C251.47 103.54 251.52 103.57 251.55 103.61C251.59 103.65 251.61 103.69 251.63 103.74C251.64 103.79 251.65 103.85 251.64 103.9L251.64 105.64C251.64 105.69 251.64 105.75 251.62 105.8C251.61 105.85 251.59 105.9 251.55 105.94C251.52 105.98 251.49 106.02 251.44 106.05C251.4 106.08 251.35 106.11 251.3 106.12Z" />
			<path id="Layer" fill-rule="evenodd" class="shp0" d="M273.14 106.05L271 106.05C270.59 106.05 270.38 106.05 270.11 105.61L263.98 95.41L263 95.41C261.87 95.41 261 95.41 259.24 95.31L259.24 105.37C259.24 105.46 259.23 105.54 259.2 105.62C259.17 105.7 259.13 105.78 259.07 105.84C259.01 105.9 258.94 105.95 258.87 105.99C258.79 106.03 258.71 106.05 258.62 106.05L256.77 106.05C256.69 106.05 256.6 106.03 256.52 105.99C256.45 105.95 256.38 105.9 256.32 105.84C256.27 105.77 256.22 105.7 256.19 105.62C256.17 105.54 256.15 105.45 256.16 105.37L256.16 81.37C256.16 80.89 256.36 80.69 256.98 80.62C258.45 80.45 260.98 80.34 262.98 80.34C268.39 80.34 272.56 82.16 272.56 87.7L272.56 88C272.6 88.8 272.49 89.59 272.25 90.35C272.01 91.11 271.64 91.82 271.15 92.45C270.66 93.08 270.07 93.62 269.39 94.04C268.72 94.46 267.97 94.76 267.19 94.92L273.42 105.32C273.44 105.34 273.45 105.37 273.46 105.39C273.48 105.42 273.49 105.44 273.49 105.47C273.5 105.49 273.51 105.52 273.51 105.55C273.52 105.57 273.52 105.6 273.52 105.63C273.52 105.68 273.51 105.73 273.49 105.78C273.47 105.83 273.44 105.87 273.41 105.91C273.37 105.95 273.33 105.98 273.29 106.01C273.24 106.03 273.19 106.04 273.14 106.05ZM269.54 87.74C269.54 84.32 267.32 83.19 263.04 83.19C261.98 83.19 260.1 83.19 259.28 83.29L259.28 92.67C260.78 92.67 262.28 92.74 263.04 92.74C267.25 92.74 269.54 91.68 269.54 87.98L269.54 87.74Z" />
		</g>
	</g>
</svg>