<svg xmlns="http://www.w3.org/2000/svg" viewBox="0 0 338.38 94.76"><defs><style>.cls-1{fill:#fff;}</style></defs><g id="Capa_2" data-name="Capa 2"><g id="Capa_1-2" data-name="Capa 1"><polygon class="cls-1" points="23.85 35.64 55.26 54.91 55.26 55.15 49.64 58.01 12.82 35.42 41.47 19.36 41.27 25.87 23.85 35.64"/><polygon class="cls-1" points="65.46 34.73 65.46 43.91 59.87 43.91 59.87 37.75 65.46 34.73"/><polygon class="cls-1" points="82.64 25.16 77.31 28.52 41.44 7.83 5.64 28.49 0 25.5 0 25.3 41.44 1.38 82.64 25.16"/><path class="cls-1" d="M62.62,40.82a5.34,5.34,0,1,1-5.34,5.34A5.34,5.34,0,0,1,62.62,40.82Z"/><polygon class="cls-1" points="82.9 25.3 82.9 73.16 49.68 92.33 49.68 58.04 49.64 58.01 55.26 55.15 55.26 82.65 77.31 69.93 77.31 28.52 82.64 25.16 82.9 25.3"/><polygon class="cls-1" points="33.4 65.08 33.4 92.44 0 73.16 0 25.5 5.64 28.49 5.58 28.52 5.58 69.93 27.81 82.77 27.81 68.12 16.13 60.56 19.14 55.87 33.4 65.08"/><polygon class="cls-1" points="65.46 34.71 65.46 34.73 59.87 37.75 41.27 25.87 41.47 19.36 41.47 19.36 65.46 34.71"/><path class="cls-1" d="M24,62.89a5.34,5.34,0,1,1,.3-7.55A5.34,5.34,0,0,1,24,62.89Z"/><path class="cls-1" d="M133,56a42.51,42.51,0,0,1-11.21,1.28c-11.44,0-22.27-6-22.27-23.93V23.85C99.49,5.94,110.32,0,121.76,0A42.51,42.51,0,0,1,133,1.28c1.05.3,1.66.6,1.66,1.65v7.3a1.33,1.33,0,0,1-1.43,1.51H133c-2.86-.23-7-.6-11.13-.6-5.2,0-9.33,2.7-9.33,12.71v9.48c0,10,4.13,12.72,9.33,12.72,4.13,0,8.27-.38,11.13-.6h.23a1.33,1.33,0,0,1,1.43,1.5v7.3C134.63,55.3,134,55.68,133,56Z"/><path class="cls-1" d="M162.39,57.26c-12.42,0-22.27-6.7-22.27-24.15v-9C140.12,6.7,150,0,162.39,0s22.27,6.7,22.27,24.15v9C184.66,50.56,174.8,57.26,162.39,57.26Zm9.33-33.11c0-9-3-12.86-9.33-12.86s-9.25,3.83-9.25,12.86v9c0,9,2.93,12.86,9.25,12.86s9.33-3.84,9.33-12.86Z"/><path class="cls-1" d="M236,56.58H224.46c-.82,0-1.13-.75-1.5-1.5L212.88,36l-.83.08c-1.58,0-3.91-.16-5.34-.16V55.08a1.51,1.51,0,0,1-1.51,1.5h-9.78a1.51,1.51,0,0,1-1.51-1.5V4.59C193.91,2,195,1.35,197.3,1a118.45,118.45,0,0,1,15.27-1c12.8,0,22.65,4.29,22.65,17.61v1c0,8-4.21,12.87-9.7,15.05l11.36,21.22a1.94,1.94,0,0,1,.22.83C237.1,56.21,236.8,56.58,236,56.58Zm-13.54-39c0-4.59-3.54-6.7-9.86-6.7-1,0-5,.15-5.86.23V25.58c.82.08,4.51.15,5.34.15,7.9,0,10.38-2,10.38-7.15Z"/><path class="cls-1" d="M266.52,57.26c-12,0-21.67-4.52-21.67-21.67V2.11A1.45,1.45,0,0,1,246.36.68h9.85a1.45,1.45,0,0,1,1.51,1.43V35.59c0,7.67,2,10.91,8.8,10.91s8.88-3.24,8.88-10.91V2.11A1.45,1.45,0,0,1,276.9.68h9.79a1.52,1.52,0,0,1,1.58,1.43V35.59C288.27,52.74,278.48,57.26,266.52,57.26Z"/><path class="cls-1" d="M313.85,57.26a55.66,55.66,0,0,1-14.22-1.66c-.76-.22-1.51-.67-1.51-1.5V46.72a1.25,1.25,0,0,1,1.36-1.43h.22c3.09.31,11.36.91,14.3.91,5.19,0,6.69-1.66,6.69-5.27,0-2.18-1.05-3.39-5-5.72L305.35,29c-7-4.14-8.88-8.88-8.88-14.37C296.47,6.4,301.13,0,315.73,0a82.4,82.4,0,0,1,15.95,1.66A1.32,1.32,0,0,1,332.81,3v7.6a1.15,1.15,0,0,1-1.28,1.28h-.15c-2.11-.15-10.84-.83-15.95-.83-4.29,0-5.87,1.28-5.87,4,0,2.1,1,3.08,5,5.26l9.63,5.2c7.83,4.21,10.16,9.18,10.16,15.27C334.39,48.76,329.12,57.26,313.85,57.26Z"/><path class="cls-1" d="M116.62,94.36a23.56,23.56,0,0,1-5.06.4c-3.75,0-8-2-8-9.43V81.09c0-7.47,4.3-9.42,8-9.42a32,32,0,0,1,5.12.49c.28,0,.49.12.49.39v1.56c0,.18-.06.34-.37.34h-.09c-1.1-.1-3.35-.28-5.12-.28-3,0-5.31,1.74-5.31,6.92v4.24c0,5.13,2.32,6.93,5.31,6.93,1.74,0,3.93-.15,5-.25h.12a.43.43,0,0,1,.49.49v1.25C117.23,94.12,117,94.3,116.62,94.36Z"/><path class="cls-1" d="M127.54,94.76c-4.78,0-8.26-2.81-8.26-9.58V81.25c0-6.77,3.48-9.58,8.26-9.58s8.24,2.81,8.24,9.58v3.93C135.78,92,132.33,94.76,127.54,94.76ZM133,81.25c0-5.13-2.07-7.08-5.43-7.08s-5.46,2-5.46,7.08v3.93c0,5.13,2.11,7.08,5.46,7.08s5.43-2,5.43-7.08Z"/><path class="cls-1" d="M155.09,94.55H153.2a1,1,0,0,1-1-.49L142.8,76.15q0-.09-.09-.09s0,0,0,.09V94a.58.58,0,0,1-.55.58h-1.59c-.3,0-.55-.06-.55-.37V72.74a.87.87,0,0,1,.89-.86h1.67c.86,0,1,.16,1.26.61l9.36,17.82.06.09s0-.06,0-.09V72.46a.57.57,0,0,1,.55-.58h1.62a.55.55,0,0,1,.54.58v21.2A.88.88,0,0,1,155.09,94.55Z"/><path class="cls-1" d="M173.67,74.26h-5.95V93.94a.58.58,0,0,1-.55.61H165.5a.58.58,0,0,1-.55-.61V74.26H159c-.34,0-.61-.15-.61-.49V72.43a.58.58,0,0,1,.61-.55h14.67a.54.54,0,0,1,.58.55v1.34C174.25,74.08,174,74.26,173.67,74.26Z"/><path class="cls-1" d="M190.48,94.55h-1.8a.56.56,0,0,1-.52-.46l-2-7h-7.9l-1.95,7a.63.63,0,0,1-.55.46H174a.49.49,0,0,1-.52-.49.58.58,0,0,1,0-.22L179.13,74a3,3,0,0,1,3.11-2.32A3,3,0,0,1,185.32,74L191,93.84a.58.58,0,0,1,0,.22A.48.48,0,0,1,190.48,94.55Zm-7.66-19.92c-.09-.34-.27-.55-.58-.55s-.52.21-.61.55l-2.77,10h6.74Z"/><path class="cls-1" d="M206.16,94.36a23.56,23.56,0,0,1-5.06.4c-3.75,0-8.06-2-8.06-9.43V81.09c0-7.47,4.31-9.42,8.06-9.42a32,32,0,0,1,5.12.49c.28,0,.49.12.49.39v1.56c0,.18-.06.34-.37.34h-.09c-1.1-.1-3.35-.28-5.12-.28-3,0-5.31,1.74-5.31,6.92v4.24c0,5.13,2.32,6.93,5.31,6.93,1.74,0,3.93-.15,5-.25h.12a.43.43,0,0,1,.49.49v1.25C206.77,94.12,206.5,94.3,206.16,94.36Z"/><path class="cls-1" d="M224.19,74.26h-5.95V93.94a.58.58,0,0,1-.55.61H216a.58.58,0,0,1-.55-.61V74.26h-5.95c-.34,0-.61-.15-.61-.49V72.43a.58.58,0,0,1,.61-.55h14.67a.54.54,0,0,1,.58.55v1.34C224.77,74.08,224.53,74.26,224.19,74.26Z"/><path class="cls-1" d="M248.32,94.36a23.56,23.56,0,0,1-5.06.4c-3.75,0-8-2-8-9.43V81.09c0-7.47,4.3-9.42,8-9.42a32,32,0,0,1,5.12.49c.28,0,.49.12.49.39v1.56c0,.18-.06.34-.37.34h-.09c-1.1-.1-3.35-.28-5.12-.28-3,0-5.31,1.74-5.31,6.92v4.24c0,5.13,2.32,6.93,5.31,6.93,1.74,0,3.93-.15,5-.25h.12a.43.43,0,0,1,.49.49v1.25C248.93,94.12,248.66,94.3,248.32,94.36Z"/><path class="cls-1" d="M264.83,94.61c-1.16.12-4.15.15-5.95.15-4.27,0-6.5-1.62-6.5-5.67V77.34c0-4,2.23-5.67,6.5-5.67,1.8,0,4.66.06,5.95.18a.44.44,0,0,1,.3.43V73.8a.33.33,0,0,1-.33.37h-5.89c-3.23,0-3.75.85-3.75,3.17v4.24h9.36a.61.61,0,0,1,.61.61v1.16a.61.61,0,0,1-.61.61h-9.36v5.13c0,2.31.52,3.17,3.75,3.17h5.89a.32.32,0,0,1,.33.36v1.56A.44.44,0,0,1,264.83,94.61Z"/><path class="cls-1" d="M284.29,94.55H282.4a1,1,0,0,1-1-.49L272,76.15c0-.06-.07-.09-.1-.09s0,0,0,.09V94a.57.57,0,0,1-.54.58h-1.59c-.31,0-.55-.06-.55-.37V72.74a.86.86,0,0,1,.88-.86h1.68c.86,0,1,.16,1.25.61l9.37,17.82.06.09s0-.06,0-.09V72.46a.57.57,0,0,1,.55-.58h1.61a.55.55,0,0,1,.55.58v21.2A.88.88,0,0,1,284.29,94.55Z"/><path class="cls-1" d="M302.87,74.26h-5.95V93.94a.58.58,0,0,1-.55.61h-1.68a.59.59,0,0,1-.55-.61V74.26H288.2c-.34,0-.61-.15-.61-.49V72.43a.58.58,0,0,1,.61-.55h14.67a.54.54,0,0,1,.58.55v1.34C303.45,74.08,303.2,74.26,302.87,74.26Z"/><path class="cls-1" d="M318.52,94.61c-1.16.12-4.15.15-5.95.15-4.27,0-6.5-1.62-6.5-5.67V77.34c0-4,2.23-5.67,6.5-5.67,1.8,0,4.67.06,5.95.18a.44.44,0,0,1,.3.43V73.8a.33.33,0,0,1-.33.37H312.6c-3.23,0-3.75.85-3.75,3.17v4.24h9.36a.61.61,0,0,1,.61.61v1.16a.61.61,0,0,1-.61.61h-9.36v5.13c0,2.31.52,3.17,3.75,3.17h5.89a.32.32,0,0,1,.33.36v1.56A.44.44,0,0,1,318.52,94.61Z"/><path class="cls-1" d="M338,94.55h-2c-.37,0-.55,0-.79-.4l-5.46-9.09H329c-1,0-1.73,0-3.35-.09v9a.58.58,0,0,1-.55.61h-1.65a.59.59,0,0,1-.55-.61V72.58c0-.42.19-.61.74-.67,1.31-.15,3.6-.24,5.36-.24,4.82,0,8.54,1.62,8.54,6.56v.21a6,6,0,0,1-4.78,6.16l5.55,9.28a.48.48,0,0,1,.09.27A.39.39,0,0,1,338,94.55Zm-3.2-16.32c0-3-2-4.06-5.8-4.06-.94,0-2.62,0-3.35.09v8.36c1.34,0,2.65.06,3.35.06,3.76,0,5.8-.94,5.8-4.24Z"/></g></g></svg>