<svg xmlns="http://www.w3.org/2000/svg" viewBox="0 0 298.88 83.69"><defs><style>.cls-1{fill:#fff;}.cls-2{fill:#005dca;}.cls-3{fill:#c2c3c9;}</style></defs><g id="Capa_2" data-name="Capa 2"><g id="Capa_1-2" data-name="Capa 1"><polygon class="cls-1" points="21.06 31.47 48.81 48.49 48.81 48.7 43.84 51.23 11.32 31.28 36.63 17.09 36.46 22.84 21.06 31.47"/><polygon class="cls-1" points="57.82 30.67 57.82 38.77 52.88 38.77 52.88 33.34 57.82 30.67"/><polygon class="cls-1" points="73 22.21 68.29 25.18 36.6 6.91 4.98 25.16 0 22.52 0 22.34 36.6 1.21 73 22.21"/><path class="cls-1" d="M55.31,36.05a4.72,4.72,0,1,1-4.71,4.72A4.72,4.72,0,0,1,55.31,36.05Z"/><polygon class="cls-1" points="73.22 22.34 73.22 64.61 43.88 81.55 43.88 51.26 43.84 51.23 48.81 48.7 48.81 73 68.29 61.76 68.29 25.18 73 22.21 73.22 22.34"/><polygon class="cls-1" points="29.5 57.47 29.5 81.64 0 64.61 0 22.52 4.98 25.16 4.93 25.18 4.93 61.76 24.57 73.1 24.57 60.16 14.24 53.49 16.91 49.34 29.5 57.47"/><polygon class="cls-1" points="57.82 30.65 57.82 30.67 52.88 33.34 36.46 22.84 36.63 17.09 36.63 17.09 57.82 30.65"/><path class="cls-1" d="M21.2,55.54a4.72,4.72,0,1,1,.27-6.67A4.7,4.7,0,0,1,21.2,55.54Z"/><path class="cls-2" d="M117.45,49.44a37.52,37.52,0,0,1-9.9,1.13c-10.1,0-19.67-5.32-19.67-21.13V21.07C87.88,5.25,97.45,0,107.55,0a38,38,0,0,1,9.9,1.13c.93.27,1.46.53,1.46,1.46V9a1.18,1.18,0,0,1-1.26,1.33h-.2c-2.52-.2-6.18-.54-9.84-.54-4.58,0-8.23,2.4-8.23,11.24v8.37c0,8.84,3.65,11.23,8.23,11.23,3.66,0,7.32-.33,9.84-.53h.2a1.17,1.17,0,0,1,1.26,1.33v6.44C118.91,48.84,118.38,49.17,117.45,49.44Z"/><path class="cls-2" d="M143.43,50.57c-11,0-19.66-5.91-19.66-21.33V21.33C123.77,5.92,132.47,0,143.43,0S163.1,5.92,163.1,21.33v7.91C163.1,44.66,154.4,50.57,143.43,50.57Zm8.25-29.24c0-8-2.66-11.36-8.25-11.36s-8.17,3.39-8.17,11.36v7.91c0,8,2.59,11.36,8.17,11.36s8.25-3.39,8.25-11.36Z"/><path class="cls-2" d="M208.43,50H198.26c-.73,0-1-.66-1.33-1.33L188,31.83l-.73.07c-1.4,0-3.46-.14-4.72-.14V48.64A1.34,1.34,0,0,1,181.25,50h-8.64a1.34,1.34,0,0,1-1.33-1.33V4.05c0-2.26.93-2.85,3-3.19A106.31,106.31,0,0,1,187.76,0c11.3,0,20,3.79,20,15.55v.86c0,7.05-3.73,11.37-8.58,13.29l10,18.74a1.83,1.83,0,0,1,.2.73C209.43,49.64,209.16,50,208.43,50Zm-12-34.42c0-4.05-3.12-5.91-8.71-5.91-.93,0-4.38.13-5.18.19V22.59c.73.07,4,.14,4.72.14,7,0,9.17-1.8,9.17-6.32Z"/><path class="cls-2" d="M235.41,50.57c-10.56,0-19.14-4-19.14-19.14V1.86A1.28,1.28,0,0,1,217.6.6h8.71a1.28,1.28,0,0,1,1.33,1.26V31.43c0,6.78,1.79,9.64,7.77,9.64s7.84-2.86,7.84-9.64V1.86A1.28,1.28,0,0,1,244.58.6h8.64a1.34,1.34,0,0,1,1.4,1.26V31.43C254.62,46.58,246,50.57,235.41,50.57Z"/><path class="cls-2" d="M277.22,50.57a49.52,49.52,0,0,1-12.56-1.46c-.67-.2-1.33-.6-1.33-1.33V41.27A1.11,1.11,0,0,1,264.52,40h.2c2.73.27,10,.8,12.63.8,4.58,0,5.91-1.46,5.91-4.65,0-1.93-.93-3-4.38-5l-9.17-5.45c-6.18-3.65-7.84-7.84-7.84-12.69,0-7.31,4.12-13,17-13A73.81,73.81,0,0,1,293,1.46a1.17,1.17,0,0,1,1,1.2V9.37a1,1,0,0,1-1.13,1.13h-.13c-1.86-.13-9.57-.73-14.09-.73-3.79,0-5.18,1.13-5.18,3.52,0,1.86.86,2.73,4.45,4.65l8.51,4.59c6.91,3.72,9,8.1,9,13.49C295.36,43.06,290.71,50.57,277.22,50.57Z"/><path class="cls-3" d="M103,83.34a20.9,20.9,0,0,1-4.47.35c-3.32,0-7.12-1.77-7.12-8.32V71.62c0-6.6,3.8-8.33,7.12-8.33a28.56,28.56,0,0,1,4.52.44c.25,0,.44.1.44.35v1.37c0,.16-.06.3-.33.3h-.08c-1-.08-3-.25-4.53-.25-2.64,0-4.68,1.54-4.68,6.12v3.75c0,4.52,2,6.11,4.68,6.11,1.54,0,3.48-.13,4.45-.21h.11c.3,0,.43.13.43.43v1.1C103.55,83.13,103.31,83.29,103,83.34Z"/><path class="cls-3" d="M112.66,83.69c-4.23,0-7.31-2.48-7.31-8.46V71.76c0-6,3.08-8.47,7.31-8.47s7.27,2.48,7.27,8.47v3.47C119.93,81.21,116.89,83.69,112.66,83.69Zm4.79-11.93c0-4.53-1.83-6.26-4.79-6.26s-4.83,1.73-4.83,6.26v3.47c0,4.53,1.86,6.25,4.83,6.25s4.79-1.72,4.79-6.25Z"/><path class="cls-3" d="M137,83.5h-1.67a.88.88,0,0,1-.86-.43l-8.33-15.81c0-.06,0-.09-.08-.09s0,0,0,.09V83a.5.5,0,0,1-.48.51h-1.4c-.27,0-.49,0-.49-.32V64.24a.76.76,0,0,1,.78-.76h1.48c.76,0,.89.14,1.11.54l8.27,15.74.06.08s0,0,0-.08V64a.52.52,0,0,1,.49-.52h1.43a.5.5,0,0,1,.48.52V82.72A.78.78,0,0,1,137,83.5Z"/><path class="cls-3" d="M153.4,65.58h-5.26V83a.5.5,0,0,1-.48.53h-1.48a.51.51,0,0,1-.49-.53V65.58h-5.25c-.3,0-.54-.13-.54-.43V64a.52.52,0,0,1,.54-.49h13a.47.47,0,0,1,.51.49v1.18C153.91,65.42,153.7,65.58,153.4,65.58Z"/><path class="cls-3" d="M168.25,83.5h-1.59a.48.48,0,0,1-.46-.4l-1.75-6.2h-7l-1.73,6.2a.53.53,0,0,1-.48.4h-1.59a.43.43,0,0,1-.46-.43.44.44,0,0,1,0-.19l5-17.54A2.66,2.66,0,0,1,161,63.29a2.61,2.61,0,0,1,2.72,2l5,17.56a.44.44,0,0,1,0,.19A.42.42,0,0,1,168.25,83.5Zm-6.77-17.59c-.08-.3-.24-.49-.51-.49s-.46.19-.54.49L158,74.77h6Z"/><path class="cls-3" d="M182.1,83.34a21,21,0,0,1-4.48.35c-3.31,0-7.11-1.77-7.11-8.32V71.62c0-6.6,3.8-8.33,7.11-8.33a28.69,28.69,0,0,1,4.53.44c.24,0,.43.1.43.35v1.37c0,.16-.05.3-.32.3h-.08c-1-.08-3-.25-4.53-.25C175,65.5,173,67,173,71.62v3.75c0,4.52,2,6.11,4.69,6.11,1.54,0,3.48-.13,4.45-.21h.11a.37.37,0,0,1,.43.43v1.1C182.64,83.13,182.39,83.29,182.1,83.34Z"/><path class="cls-3" d="M198,65.58h-5.25V83a.51.51,0,0,1-.49.53H190.8a.51.51,0,0,1-.48-.53V65.58h-5.26c-.29,0-.54-.13-.54-.43V64a.52.52,0,0,1,.54-.49h13a.48.48,0,0,1,.52.49v1.18C198.54,65.42,198.32,65.58,198,65.58Z"/><path class="cls-2" d="M219.34,83.34a21,21,0,0,1-4.48.35c-3.31,0-7.11-1.77-7.11-8.32V71.62c0-6.6,3.8-8.33,7.11-8.33a28.69,28.69,0,0,1,4.53.44c.24,0,.43.1.43.35v1.37c0,.16,0,.3-.32.3h-.08c-1-.08-3-.25-4.53-.25-2.64,0-4.69,1.54-4.69,6.12v3.75c0,4.52,2.05,6.11,4.69,6.11,1.54,0,3.48-.13,4.45-.21h.1c.3,0,.44.13.44.43v1.1C219.88,83.13,219.63,83.29,219.34,83.34Z"/><path class="cls-2" d="M233.92,83.56c-1,.11-3.67.13-5.26.13-3.77,0-5.74-1.42-5.74-5V68.31c0-3.59,2-5,5.74-5,1.59,0,4.12.06,5.26.17a.36.36,0,0,1,.26.37v1.35a.28.28,0,0,1-.29.32h-5.2c-2.86,0-3.32.76-3.32,2.81v3.74h8.28a.54.54,0,0,1,.53.54v1a.53.53,0,0,1-.53.53h-8.28v4.53c0,2,.46,2.8,3.32,2.8h5.2a.29.29,0,0,1,.29.33v1.37A.38.38,0,0,1,233.92,83.56Z"/><path class="cls-2" d="M251.11,83.5h-1.67a.91.91,0,0,1-.87-.43l-8.32-15.81c0-.06-.06-.09-.08-.09s0,0,0,.09V83a.51.51,0,0,1-.49.51h-1.4c-.27,0-.48,0-.48-.32V64.24a.76.76,0,0,1,.78-.76H240c.76,0,.89.14,1.11.54l8.27,15.74.05.08s0,0,0-.08V64a.52.52,0,0,1,.48-.52h1.43a.5.5,0,0,1,.49.52V82.72A.78.78,0,0,1,251.11,83.5Z"/><path class="cls-2" d="M267.52,65.58h-5.26V83a.5.5,0,0,1-.48.53H260.3a.51.51,0,0,1-.49-.53V65.58h-5.25c-.3,0-.54-.13-.54-.43V64a.52.52,0,0,1,.54-.49h13A.48.48,0,0,1,268,64v1.18C268,65.42,267.81,65.58,267.52,65.58Z"/><path class="cls-2" d="M281.34,83.56c-1,.11-3.66.13-5.25.13-3.78,0-5.74-1.42-5.74-5V68.31c0-3.59,2-5,5.74-5,1.59,0,4.12.06,5.25.17a.37.37,0,0,1,.27.37v1.35a.29.29,0,0,1-.3.32h-5.2c-2.85,0-3.31.76-3.31,2.81v3.74h8.27a.54.54,0,0,1,.54.54v1a.54.54,0,0,1-.54.53H272.8v4.53c0,2,.46,2.8,3.31,2.8h5.2a.3.3,0,0,1,.3.33v1.37A.39.39,0,0,1,281.34,83.56Z"/><path class="cls-2" d="M298.53,83.5h-1.72c-.33,0-.49,0-.7-.35l-4.83-8h-.7c-.89,0-1.53,0-3-.08V83a.51.51,0,0,1-.49.53h-1.45a.51.51,0,0,1-.49-.53V64.1c0-.37.17-.54.65-.59,1.16-.13,3.18-.22,4.74-.22,4.26,0,7.55,1.43,7.55,5.8v.19a5.31,5.31,0,0,1-4.23,5.44l4.9,8.19a.38.38,0,0,1,.08.24A.34.34,0,0,1,298.53,83.5ZM295.7,69.09c0-2.7-1.75-3.59-5.12-3.59-.83,0-2.31,0-3,.08V73c1.19,0,2.34,0,3,0,3.32,0,5.12-.83,5.12-3.74Z"/></g></g></svg>