<svg xmlns="http://www.w3.org/2000/svg" viewBox="0 0 97 107" width="97" height="107">
	<style>
		tspan { white-space:pre }
		.shp0 { fill: #005dca } 
	</style>
	<g id="Capa_2">
		<g id="Capa_1-2">
			<path id="Layer" class="shp0" d="M26.75 39.98L61.99 61.59L61.99 61.86L55.68 65.07L14.38 39.73L46.52 21.71L46.3 29.01L26.75 39.98L26.75 39.98Z" />
			<path id="Layer" class="shp0" d="M73.43 38.96L73.43 49.25L67.16 49.25L67.16 42.34L73.43 38.96L73.43 38.96Z" />
			<path id="Layer" class="shp0" d="M92.71 28.21L86.72 31.99L46.49 8.78L6.33 31.96L0 28.6L0 28.37L46.49 1.54L92.71 28.21L92.71 28.21Z" />
			<path id="Layer" class="shp0" d="M70.25 45.79C72.68 45.79 74.86 47.25 75.79 49.49C76.72 51.74 76.21 54.32 74.49 56.03C72.78 57.75 70.2 58.26 67.95 57.33C65.71 56.4 64.25 54.22 64.25 51.79C64.25 51 64.41 50.22 64.71 49.49C65.01 48.77 65.45 48.1 66.01 47.55C66.56 46.99 67.23 46.55 67.95 46.25C68.68 45.95 69.46 45.79 70.25 45.79Z" />
			<path id="Layer" class="shp0" d="M92.99 28.37L92.99 82.06L55.73 103.56L55.73 65.1L55.68 65.07L61.99 61.86L61.99 92.71L86.72 78.44L86.72 31.99L92.71 28.21L92.99 28.37L92.99 28.37Z" />
			<path id="Layer" class="shp0" d="M37.47 72.99L37.47 103.69L0 82.06L0 28.6L6.33 31.96L6.26 31.99L6.26 78.44L31.2 92.84L31.2 76.41L18.09 67.93L21.47 62.67L37.47 72.99L37.47 72.99Z" />
			<path id="Layer" class="shp0" d="M73.43 38.93L73.43 38.96L67.16 42.34L46.3 29.01L46.52 21.71L46.52 21.71L73.43 38.93L73.43 38.93Z" />
			<path id="Layer" class="shp0" d="M26.93 70.54C25.15 72.19 22.55 72.6 20.34 71.58C18.14 70.57 16.76 68.32 16.86 65.89C16.96 63.47 18.51 61.34 20.79 60.5C23.07 59.67 25.63 60.28 27.27 62.07C27.8 62.65 28.22 63.33 28.49 64.07C28.76 64.8 28.88 65.59 28.85 66.38C28.82 67.16 28.63 67.93 28.3 68.65C27.97 69.36 27.51 70.01 26.93 70.54L26.93 70.54Z" />
			<path id="Layer" class="shp0" d="M149.16 62.79C148.13 63.05 147.1 63.27 146.06 63.46C145.02 63.65 143.97 63.81 142.92 63.93C141.87 64.05 140.81 64.13 139.75 64.18C138.7 64.23 137.64 64.25 136.58 64.23C123.75 64.23 111.58 57.47 111.58 37.39L111.58 26.75C111.6 6.67 123.75 0 136.58 0C137.64 -0.02 138.7 -0.01 139.75 0.04C140.81 0.09 141.87 0.18 142.92 0.3C143.97 0.42 145.02 0.57 146.06 0.76C147.1 0.95 148.13 1.17 149.16 1.43C150.34 1.77 151.01 2.11 151.01 3.29L151.01 11.48C151.04 11.7 151.02 11.93 150.95 12.14C150.89 12.35 150.77 12.55 150.62 12.71C150.46 12.87 150.27 13 150.07 13.08C149.86 13.16 149.63 13.19 149.41 13.17L149.16 13.17C145.95 12.91 141.31 12.49 136.67 12.49C130.84 12.49 126.2 15.49 126.2 26.75L126.2 37.39C126.2 48.61 130.84 51.65 136.67 51.65C141.31 51.65 145.95 51.23 149.16 50.98L149.41 50.98C149.63 50.96 149.86 50.99 150.06 51.07C150.27 51.15 150.46 51.27 150.62 51.43C150.77 51.59 150.89 51.79 150.95 52C151.02 52.21 151.04 52.44 151.01 52.66L151.01 60.85C151 62 150.34 62.45 149.16 62.79Z" />
			<path id="Layer" fill-rule="evenodd" class="shp0" d="M182.16 64.23C168.23 64.23 157.16 56.71 157.16 37.13L157.16 27.13C157.16 7.55 168.16 0.04 182.16 0.04C196.16 0.04 207.16 7.55 207.16 27.13L207.16 37.13C207.14 56.71 196.08 64.23 182.16 64.23ZM192.62 27.09C192.62 16.96 189.25 12.66 182.16 12.66C175.07 12.66 171.78 17 171.78 27.09L171.78 37.09C171.78 47.22 175.07 51.53 182.16 51.53C189.25 51.53 192.62 47.22 192.62 37.09L192.62 27.09Z" />
			<path id="Layer" fill-rule="evenodd" class="shp0" d="M264.7 63.47L251.79 63.47C250.86 63.47 250.52 62.62 250.1 61.78L238.79 40.43L237.86 40.51C236.09 40.51 233.47 40.34 231.86 40.34L231.86 61.78C231.86 62 231.82 62.22 231.73 62.43C231.65 62.63 231.52 62.82 231.37 62.98C231.21 63.13 231.02 63.26 230.82 63.34C230.61 63.43 230.39 63.47 230.17 63.47L219.17 63.47C218.95 63.47 218.73 63.43 218.52 63.34C218.32 63.26 218.13 63.13 217.97 62.98C217.82 62.82 217.69 62.63 217.61 62.43C217.52 62.22 217.48 62 217.48 61.78L217.48 5.15C217.48 2.28 218.66 1.52 221.28 1.1C222.7 0.92 224.13 0.76 225.56 0.62C226.99 0.48 228.42 0.37 229.85 0.27C231.28 0.18 232.71 0.11 234.15 0.07C235.58 0.02 237.02 0 238.45 0C252.8 0 263.86 4.81 263.86 19.75L263.86 20.85C263.86 29.79 259.13 35.28 252.97 37.72L265.71 61.52C265.75 61.59 265.78 61.67 265.81 61.74C265.84 61.82 265.87 61.89 265.89 61.97C265.91 62.05 265.93 62.13 265.94 62.21C265.96 62.29 265.97 62.37 265.97 62.45C266 63 265.63 63.47 264.7 63.47ZM249.51 19.75C249.51 14.6 245.51 12.24 238.45 12.24C237.27 12.24 232.88 12.41 231.87 12.49L231.87 28.69C232.8 28.78 236.93 28.86 237.87 28.86C246.73 28.86 249.52 26.58 249.52 20.86L249.51 19.75Z" />
			<path id="Layer" class="shp0" d="M299 64.23C285.58 64.23 274.69 59.16 274.69 39.92L274.69 2.36C274.69 2.14 274.74 1.93 274.83 1.73C274.91 1.53 275.04 1.35 275.2 1.2C275.35 1.05 275.54 0.94 275.74 0.86C275.95 0.78 276.16 0.75 276.38 0.76L287.44 0.76C287.66 0.75 287.87 0.79 288.07 0.86C288.28 0.94 288.46 1.06 288.62 1.21C288.77 1.35 288.9 1.53 288.99 1.73C289.07 1.93 289.12 2.14 289.12 2.36L289.12 39.92C289.12 48.53 291.4 52.16 299 52.16C306.6 52.16 309 48.53 309 39.92L309 2.36C309 2.14 309.05 1.93 309.13 1.73C309.22 1.53 309.35 1.35 309.5 1.21C309.66 1.06 309.84 0.94 310.05 0.86C310.25 0.79 310.46 0.75 310.68 0.76L321.68 0.76C321.9 0.75 322.12 0.78 322.33 0.86C322.54 0.93 322.73 1.05 322.89 1.2C323.06 1.35 323.19 1.52 323.29 1.72C323.38 1.92 323.44 2.14 323.45 2.36L323.45 39.92C323.36 59.16 312.39 64.23 299 64.23Z" />
			<path id="Layer" class="shp0" d="M352.06 64.23C350.71 64.25 349.37 64.22 348.02 64.15C346.68 64.08 345.34 63.97 344 63.82C342.66 63.66 341.33 63.46 340.01 63.22C338.68 62.98 337.37 62.7 336.06 62.37C335.22 62.12 334.38 61.61 334.38 60.68L334.38 52.41C334.35 52.2 334.37 51.98 334.43 51.78C334.49 51.58 334.6 51.39 334.75 51.24C334.9 51.08 335.08 50.97 335.28 50.89C335.47 50.82 335.69 50.79 335.9 50.81L336.15 50.81C339.61 51.14 348.89 51.81 352.15 51.81C357.98 51.81 359.67 49.95 359.67 45.9C359.67 43.45 358.49 42.1 354.1 39.49L342.45 32.57C334.6 27.92 332.45 22.57 332.45 16.45C332.56 7.17 337.79 0 354.17 0C355.67 0.01 357.17 0.06 358.67 0.14C360.17 0.22 361.67 0.34 363.16 0.49C364.65 0.65 366.14 0.84 367.63 1.07C369.11 1.3 370.59 1.56 372.06 1.86C372.24 1.89 372.41 1.95 372.57 2.03C372.73 2.12 372.87 2.24 372.98 2.38C373.1 2.52 373.18 2.68 373.24 2.85C373.3 3.02 373.33 3.2 373.32 3.38L373.32 11.9C373.34 12.09 373.32 12.29 373.26 12.47C373.2 12.66 373.09 12.83 372.96 12.97C372.82 13.1 372.65 13.21 372.46 13.27C372.28 13.33 372.08 13.35 371.89 13.33L371.72 13.33C369.36 13.17 359.57 12.41 353.83 12.41C349.02 12.41 347.25 13.84 347.25 16.88C347.25 19.24 348.34 20.34 352.9 22.79L363.7 28.61C372.48 33.34 375.1 38.91 375.1 45.74C375.1 54.69 369.19 64.23 352.06 64.23Z" />
			<path id="Layer" class="shp0" d="M130.82 105.85C130.35 105.94 129.88 106.01 129.41 106.07C128.94 106.13 128.47 106.18 127.99 106.22C127.52 106.26 127.04 106.28 126.57 106.29C126.09 106.3 125.62 106.3 125.14 106.29C120.93 106.29 116.14 104.03 116.14 95.72L116.14 91C116.14 82.61 120.96 80.42 125.14 80.42C125.62 80.43 126.1 80.45 126.58 80.47C127.07 80.5 127.55 80.54 128.03 80.58C128.51 80.63 128.98 80.68 129.46 80.75C129.94 80.81 130.42 80.89 130.89 80.97C131.2 80.97 131.44 81.11 131.44 81.42L131.44 83.16C131.44 83.37 131.37 83.54 131.03 83.54L130.93 83.54C129.69 83.44 127.16 83.23 125.18 83.23C121.82 83.23 119.18 85.23 119.18 91L119.18 95.76C119.18 101.51 121.78 103.53 125.18 103.53C127.13 103.53 129.59 103.35 130.82 103.25L131 103.25C131.38 103.25 131.55 103.42 131.55 103.8L131.55 105.2C131.51 105.57 131.2 105.78 130.82 105.85Z" />
			<path id="Layer" fill-rule="evenodd" class="shp0" d="M143.08 106.29C137.7 106.29 133.8 103.14 133.8 95.55L133.8 91.13C133.8 83.53 137.7 80.38 143.08 80.38C148.46 80.38 152.32 83.53 152.32 91.13L152.32 95.55C152.32 103.14 148.45 106.29 143.08 106.29ZM149.17 91.13C149.17 85.38 146.84 83.19 143.08 83.19C139.32 83.19 137 85.38 137 91.13L137 95.55C137 101.29 139.36 103.49 143.13 103.49C146.9 103.49 149.22 101.29 149.22 95.55L149.17 91.13Z" />
			<path id="Layer" class="shp0" d="M174 106.05L171.88 106.05C171.77 106.06 171.66 106.06 171.56 106.04C171.45 106.02 171.34 105.99 171.25 105.94C171.15 105.89 171.06 105.83 170.98 105.75C170.9 105.68 170.83 105.59 170.78 105.5L160.19 85.42C160.19 85.35 160.12 85.31 160.08 85.31C160.04 85.31 160.08 85.31 160.08 85.42L160.08 105.42C160.08 105.5 160.07 105.59 160.04 105.66C160.01 105.74 159.96 105.81 159.9 105.87C159.85 105.93 159.78 105.98 159.7 106.01C159.63 106.05 159.54 106.07 159.46 106.07L157.68 106.07C157.34 106.07 157.07 106 157.07 105.66L157.07 81.58C157.07 81.45 157.1 81.32 157.15 81.2C157.2 81.08 157.27 80.97 157.36 80.87C157.46 80.78 157.57 80.71 157.69 80.66C157.81 80.61 157.94 80.58 158.07 80.58L159.95 80.58C160.95 80.58 161.08 80.75 161.36 81.27L171.86 101.27L171.93 101.38C171.93 101.38 171.93 101.31 171.93 101.27L171.93 81.27C171.93 81.19 171.94 81.11 171.97 81.03C172 80.95 172.05 80.88 172.1 80.82C172.16 80.76 172.23 80.71 172.3 80.68C172.38 80.64 172.46 80.62 172.54 80.62L174.35 80.62C174.43 80.62 174.52 80.64 174.59 80.67C174.67 80.7 174.74 80.75 174.8 80.81C174.86 80.87 174.9 80.94 174.93 81.02C174.96 81.1 174.97 81.19 174.97 81.27L174.97 105.06C174.97 105.19 174.94 105.31 174.89 105.43C174.85 105.55 174.77 105.66 174.68 105.75C174.59 105.84 174.49 105.92 174.37 105.97C174.25 106.02 174.13 106.05 174 106.05Z" />
			<path id="Layer" class="shp0" d="M194.82 83.29L188.14 83.29L188.14 105.37C188.15 105.45 188.13 105.54 188.11 105.62C188.08 105.7 188.03 105.77 187.98 105.84C187.92 105.9 187.85 105.95 187.78 105.99C187.7 106.03 187.61 106.05 187.53 106.05L185.65 106.05C185.56 106.05 185.48 106.03 185.4 105.99C185.32 105.96 185.25 105.9 185.2 105.84C185.14 105.78 185.09 105.7 185.06 105.62C185.04 105.54 185.02 105.46 185.03 105.37L185.03 83.29L178.36 83.29C177.98 83.29 177.67 83.12 177.67 82.75L177.67 81.24C177.68 81.15 177.7 81.07 177.73 80.99C177.77 80.92 177.82 80.85 177.89 80.79C177.95 80.73 178.03 80.69 178.11 80.66C178.19 80.63 178.27 80.62 178.36 80.62L194.82 80.62C194.9 80.61 194.99 80.62 195.07 80.65C195.15 80.68 195.22 80.73 195.28 80.78C195.35 80.84 195.39 80.91 195.43 80.99C195.46 81.07 195.47 81.16 195.47 81.24L195.47 82.75C195.47 83.09 195.2 83.29 194.82 83.29Z" />
			<path id="Layer" fill-rule="evenodd" class="shp0" d="M211.68 106.05C211.61 106.05 211.54 106.03 211.48 106.01C211.41 105.98 211.35 105.94 211.3 105.9C211.24 105.85 211.2 105.8 211.16 105.74C211.13 105.68 211.1 105.61 211.09 105.54L208.87 97.67L200 97.67L197.81 105.54C197.79 105.61 197.76 105.67 197.72 105.73C197.68 105.79 197.64 105.85 197.58 105.89C197.53 105.94 197.46 105.97 197.4 106C197.33 106.03 197.26 106.04 197.19 106.05L195.19 106.05C195.12 106.05 195.04 106.04 194.97 106.02C194.9 105.99 194.84 105.95 194.78 105.9C194.73 105.85 194.68 105.79 194.65 105.72C194.63 105.65 194.61 105.57 194.61 105.5C194.61 105.48 194.6 105.46 194.6 105.44C194.6 105.42 194.6 105.4 194.6 105.38C194.6 105.37 194.6 105.35 194.6 105.33C194.6 105.31 194.61 105.29 194.61 105.27L200.94 83C201.03 82.62 201.19 82.25 201.4 81.92C201.62 81.59 201.89 81.3 202.21 81.06C202.53 80.83 202.88 80.65 203.26 80.54C203.64 80.42 204.04 80.38 204.43 80.4C204.82 80.37 205.22 80.42 205.6 80.53C205.97 80.64 206.33 80.82 206.64 81.06C206.96 81.3 207.23 81.59 207.44 81.92C207.65 82.25 207.81 82.62 207.89 83L214.22 105.32C214.22 105.34 214.23 105.36 214.23 105.38C214.23 105.4 214.23 105.42 214.23 105.44C214.23 105.45 214.23 105.47 214.23 105.49C214.23 105.51 214.22 105.53 214.22 105.55C214.22 105.62 214.2 105.68 214.17 105.75C214.14 105.81 214.1 105.86 214.05 105.91C214 105.96 213.94 105.99 213.88 106.02C213.82 106.04 213.75 106.05 213.68 106.05L211.68 106.05ZM205.09 83.7C204.98 83.33 204.78 83.09 204.43 83.09C204.08 83.09 203.85 83.33 203.75 83.7L200.64 95L208.2 95L205.09 83.7Z" />
			<path id="Layer" class="shp0" d="M231.27 105.85C230.8 105.94 230.33 106.01 229.86 106.07C229.39 106.13 228.91 106.18 228.44 106.22C227.96 106.26 227.49 106.28 227.01 106.29C226.53 106.3 226.06 106.3 225.58 106.29C221.37 106.29 216.58 104.03 216.58 95.72L216.58 91C216.58 82.61 221.4 80.42 225.58 80.42C226.06 80.43 226.54 80.45 227.02 80.47C227.51 80.5 227.99 80.54 228.47 80.58C228.95 80.63 229.42 80.68 229.9 80.75C230.38 80.81 230.86 80.89 231.33 80.97C231.64 80.97 231.88 81.11 231.88 81.42L231.88 83.16C231.88 83.37 231.81 83.54 231.47 83.54L231.37 83.54C230.14 83.44 227.6 83.23 225.62 83.23C222.26 83.23 219.62 85.23 219.62 91L219.62 95.76C219.62 101.51 222.22 103.53 225.62 103.53C227.57 103.53 230.03 103.35 231.27 103.25L231.4 103.25C231.78 103.25 231.95 103.42 231.95 103.8L231.95 105.2C232 105.57 231.64 105.78 231.27 105.85Z" />
			<path id="Layer" class="shp0" d="M251.49 83.29L244.82 83.29L244.82 105.37C244.82 105.46 244.81 105.54 244.78 105.62C244.75 105.7 244.71 105.78 244.65 105.84C244.59 105.9 244.52 105.95 244.45 105.99C244.37 106.03 244.29 106.05 244.2 106.05L242.32 106.05C242.23 106.05 242.15 106.03 242.07 105.99C242 105.95 241.93 105.9 241.87 105.84C241.81 105.78 241.77 105.7 241.74 105.62C241.71 105.54 241.7 105.46 241.7 105.37L241.7 83.29L235 83.29C234.62 83.29 234.31 83.12 234.31 82.75L234.31 81.24C234.32 81.15 234.34 81.07 234.37 80.99C234.41 80.92 234.46 80.85 234.53 80.79C234.59 80.73 234.67 80.69 234.75 80.66C234.83 80.63 234.91 80.62 235 80.62L251.46 80.62C251.54 80.61 251.63 80.62 251.71 80.65C251.79 80.68 251.86 80.73 251.92 80.78C251.99 80.84 252.03 80.91 252.07 80.99C252.1 81.07 252.11 81.16 252.11 81.24L252.11 82.75C252.14 83.09 251.87 83.29 251.49 83.29Z" />
			<path id="Layer" class="shp0" d="M278.56 105.85C278.09 105.94 277.62 106.01 277.15 106.07C276.68 106.13 276.21 106.18 275.73 106.22C275.26 106.26 274.78 106.28 274.31 106.29C273.83 106.3 273.36 106.3 272.88 106.29C268.67 106.29 263.88 104.03 263.88 95.72L263.88 91C263.88 82.61 268.71 80.42 272.88 80.42C273.36 80.43 273.84 80.45 274.32 80.47C274.81 80.5 275.29 80.54 275.77 80.58C276.25 80.63 276.72 80.68 277.2 80.75C277.68 80.81 278.16 80.89 278.63 80.97C278.93 80.97 279.18 81.11 279.18 81.42L279.18 83.16C279.18 83.37 279.11 83.54 278.76 83.54L278.66 83.54C277.43 83.44 274.9 83.23 272.91 83.23C269.56 83.23 266.91 85.23 266.91 91L266.91 95.76C266.91 101.51 269.51 103.53 272.91 103.53C274.86 103.53 277.33 103.35 278.56 103.25L278.7 103.25C279.07 103.25 279.24 103.42 279.24 103.8L279.24 105.2C279.24 105.57 278.93 105.78 278.56 105.85Z" />
			<path id="Layer" class="shp0" d="M297.07 106.12C295.77 106.26 292.42 106.29 290.4 106.29C285.61 106.29 283.11 104.48 283.11 99.93L283.11 86.75C283.11 82.2 285.61 80.38 290.4 80.38C292.4 80.38 295.64 80.45 297.07 80.59C297.12 80.6 297.17 80.63 297.21 80.66C297.26 80.69 297.3 80.73 297.33 80.77C297.36 80.81 297.38 80.86 297.4 80.91C297.42 80.96 297.42 81.02 297.42 81.07L297.42 82.78C297.43 82.83 297.42 82.89 297.4 82.94C297.39 82.99 297.36 83.03 297.32 83.07C297.29 83.11 297.24 83.14 297.19 83.16C297.15 83.18 297.09 83.19 297.04 83.19L290.43 83.19C286.81 83.19 286.22 84.19 286.22 86.75L286.22 91.51L296.73 91.51C296.82 91.51 296.91 91.53 296.99 91.56C297.07 91.6 297.15 91.65 297.21 91.71C297.28 91.77 297.33 91.85 297.36 91.93C297.4 92.01 297.42 92.1 297.42 92.19L297.42 93.49C297.42 93.58 297.4 93.67 297.37 93.75C297.33 93.84 297.28 93.91 297.22 93.98C297.15 94.04 297.08 94.09 296.99 94.13C296.91 94.16 296.82 94.18 296.73 94.18L286.22 94.18L286.22 99.93C286.22 102.53 286.81 103.49 290.43 103.49L297 103.49C297.05 103.49 297.11 103.5 297.15 103.52C297.2 103.54 297.25 103.57 297.28 103.61C297.32 103.65 297.35 103.69 297.36 103.74C297.38 103.79 297.39 103.85 297.38 103.9L297.38 105.64C297.38 105.69 297.38 105.74 297.37 105.79C297.35 105.84 297.33 105.89 297.3 105.93C297.28 105.97 297.24 106.01 297.2 106.04C297.16 106.08 297.12 106.1 297.07 106.12Z" />
			<path id="Layer" class="shp0" d="M318.91 106.05L316.78 106.05C316.67 106.06 316.56 106.06 316.46 106.04C316.35 106.02 316.25 105.99 316.15 105.94C316.06 105.89 315.97 105.83 315.89 105.75C315.81 105.68 315.74 105.59 315.69 105.5L305.11 85.42C305.11 85.35 305.05 85.31 305.01 85.31C304.97 85.31 305.01 85.31 305.01 85.42L305.01 105.42C305.01 105.5 305 105.59 304.97 105.66C304.94 105.74 304.89 105.81 304.83 105.87C304.78 105.93 304.71 105.98 304.63 106.01C304.56 106.05 304.47 106.07 304.39 106.07L302.61 106.07C302.27 106.07 302 106 302 105.66L302 81.58C302 81.45 302.03 81.32 302.08 81.2C302.13 81.08 302.2 80.97 302.29 80.87C302.39 80.78 302.5 80.71 302.62 80.66C302.74 80.61 302.87 80.58 303 80.58L304.88 80.58C305.88 80.58 306.01 80.75 306.28 81.27L316.79 101.27L316.86 101.38C316.86 101.38 316.86 101.31 316.86 101.27L316.86 81.27C316.86 81.19 316.88 81.1 316.91 81.03C316.94 80.95 316.98 80.88 317.04 80.82C317.1 80.76 317.17 80.71 317.24 80.68C317.32 80.64 317.4 80.62 317.48 80.62L319.29 80.62C319.37 80.62 319.46 80.64 319.53 80.67C319.61 80.7 319.68 80.75 319.74 80.81C319.8 80.87 319.84 80.94 319.87 81.02C319.9 81.1 319.91 81.19 319.91 81.27L319.91 105.06C319.91 105.19 319.88 105.32 319.83 105.44C319.78 105.56 319.71 105.67 319.61 105.76C319.52 105.85 319.41 105.93 319.29 105.97C319.17 106.02 319.04 106.05 318.91 106.05L318.91 106.05Z" />
			<path id="Layer" class="shp0" d="M339.75 83.29L333.07 83.29L333.07 105.37C333.07 105.45 333.06 105.54 333.03 105.62C333 105.7 332.96 105.77 332.9 105.84C332.85 105.9 332.78 105.95 332.7 105.99C332.63 106.02 332.54 106.04 332.46 106.05L330.58 106.05C330.49 106.05 330.41 106.03 330.33 105.99C330.25 105.96 330.18 105.9 330.13 105.84C330.07 105.78 330.02 105.7 329.99 105.62C329.97 105.54 329.95 105.46 329.96 105.37L329.96 83.29L323.29 83.29C322.91 83.29 322.6 83.12 322.6 82.75L322.6 81.24C322.61 81.15 322.63 81.07 322.66 80.99C322.7 80.92 322.75 80.85 322.82 80.79C322.88 80.73 322.96 80.69 323.04 80.66C323.12 80.63 323.2 80.62 323.29 80.62L339.75 80.62C339.83 80.61 339.92 80.63 340 80.66C340.08 80.68 340.15 80.73 340.21 80.79C340.27 80.85 340.32 80.92 340.35 80.99C340.39 81.07 340.4 81.16 340.4 81.24L340.4 82.75C340.4 83.09 340.12 83.29 339.75 83.29Z" />
			<path id="Layer" class="shp0" d="M357.3 106.12C356 106.26 352.65 106.29 350.63 106.29C345.84 106.29 343.34 104.48 343.34 99.93L343.34 86.75C343.34 82.2 345.84 80.38 350.63 80.38C352.63 80.38 355.87 80.45 357.3 80.59C357.35 80.6 357.4 80.63 357.44 80.66C357.49 80.69 357.52 80.73 357.55 80.77C357.59 80.81 357.61 80.86 357.62 80.91C357.64 80.96 357.64 81.02 357.64 81.07L357.64 82.78C357.65 82.83 357.64 82.89 357.63 82.94C357.61 82.99 357.59 83.03 357.55 83.07C357.52 83.11 357.47 83.14 357.42 83.16C357.38 83.18 357.32 83.19 357.27 83.19L350.66 83.19C347.04 83.19 346.45 84.19 346.45 86.75L346.45 91.51L357 91.51C357.09 91.51 357.18 91.53 357.26 91.56C357.34 91.6 357.42 91.65 357.48 91.71C357.54 91.77 357.59 91.85 357.63 91.93C357.66 92.01 357.68 92.1 357.68 92.19L357.68 93.49C357.68 93.58 357.66 93.67 357.63 93.75C357.6 93.84 357.55 93.91 357.48 93.98C357.42 94.04 357.35 94.09 357.26 94.13C357.18 94.16 357.09 94.18 357 94.18L346.45 94.18L346.45 99.93C346.45 102.53 347.04 103.49 350.66 103.49L357.27 103.49C357.32 103.49 357.38 103.5 357.42 103.52C357.47 103.54 357.52 103.57 357.55 103.61C357.59 103.65 357.61 103.69 357.63 103.74C357.64 103.79 357.65 103.85 357.64 103.9L357.64 105.64C357.64 105.69 357.64 105.75 357.62 105.8C357.61 105.85 357.59 105.9 357.55 105.94C357.52 105.98 357.49 106.02 357.44 106.05C357.4 106.08 357.35 106.11 357.3 106.12Z" />
			<path id="Layer" fill-rule="evenodd" class="shp0" d="M379.14 106.05L377 106.05C376.59 106.05 376.38 106.05 376.11 105.61L369.98 95.41L369 95.41C367.87 95.41 367 95.41 365.24 95.31L365.24 105.37C365.24 105.46 365.23 105.54 365.2 105.62C365.17 105.7 365.13 105.78 365.07 105.84C365.01 105.9 364.94 105.95 364.87 105.99C364.79 106.03 364.71 106.05 364.62 106.05L362.77 106.05C362.69 106.05 362.6 106.03 362.52 105.99C362.45 105.95 362.38 105.9 362.32 105.84C362.27 105.77 362.22 105.7 362.19 105.62C362.17 105.54 362.15 105.45 362.16 105.37L362.16 81.37C362.16 80.89 362.36 80.69 362.98 80.62C364.45 80.45 366.98 80.34 368.98 80.34C374.39 80.34 378.56 82.16 378.56 87.7L378.56 88C378.6 88.8 378.49 89.59 378.25 90.35C378.01 91.11 377.64 91.82 377.15 92.45C376.66 93.08 376.07 93.62 375.39 94.04C374.72 94.46 373.97 94.76 373.19 94.92L379.42 105.32C379.44 105.34 379.45 105.37 379.46 105.39C379.48 105.42 379.49 105.44 379.49 105.47C379.5 105.49 379.51 105.52 379.51 105.55C379.52 105.57 379.52 105.6 379.52 105.63C379.52 105.68 379.51 105.73 379.49 105.78C379.47 105.83 379.44 105.87 379.41 105.91C379.37 105.95 379.33 105.98 379.29 106.01C379.24 106.03 379.19 106.04 379.14 106.05ZM375.54 87.74C375.54 84.32 373.32 83.19 369.04 83.19C367.98 83.19 366.1 83.19 365.28 83.29L365.28 92.67C366.78 92.67 368.28 92.74 369.04 92.74C373.25 92.74 375.54 91.68 375.54 87.98L375.54 87.74Z" />
		</g>
	</g>
</svg>